# xmcd
#
# Track frame offsets:
#	150
#	16425
#	29175
#	46650
#	60075
#	79650
#	97650
#	121649
#	140549
#	151574
#	167549
#	197249
#	211349
#	229574
#	255374
#	273524
#
# Disc length: 3758 seconds
#
# Revision: 1
# Processed by: cddbd v1.5.1PL0 Copyright (c) Steve Scherf et al.
# Submitted via: CDex 1.50Beta5
#
DISCID=bb0eac10
DTITLE=SoundUnion - Metamorphic
DYEAR=1900
DGENRE=Other
TTITLE0=Adventure
TTITLE1=SoundUnion/本当はお嬢様
TTITLE2=SoundUnion/Dance! Dance!.. Dance!?
TTITLE3=SoundUnion/Invisible Wings
TTITLE4=SoundUnion/Midnight intrigue
TTITLE5=SoundUnion/Lonely Cinderella
TTITLE6=SoundUnion/Dance in the Sky
TTITLE7=SoundUnion/Leonid Meteor Storm
TTITLE8=SoundUnion/Wire stripper
TTITLE9=SoundUnion/Unheart E-Mail
TTITLE10=SoundUnion/Midnight Rainy Dance
TTITLE11=SoundUnion/Deformation
TTITLE12=SoundUnion/そして愛する者の名を呼び
TTITLE13=SoundUnion/Take me With you
TTITLE14=SoundUnion/Attendant
TTITLE15=SoundUnion/地球ノ果テ
EXTD=
EXTT0=
EXTT1=
EXTT2=
EXTT3=
EXTT4=
EXTT5=
EXTT6=
EXTT7=
EXTT8=
EXTT9=
EXTT10=
EXTT11=
EXTT12=
EXTT13=
EXTT14=
EXTT15=
PLAYORDER=
